<svg preserveAspectRatio="none" width="100%" height="100%" overflow="visible" style="display: block;" viewBox="0 0 225 225" fill="none" xmlns="http://www.w3.org/2000/svg">
<g id="Frame 54">
<path id="Ellipse 20" d="M45.6817 85.5531C43.2014 84.255 40.1214 85.1953 38.9723 87.748C34.5732 97.5202 32.2803 108.116 32.2642 118.855C32.2482 129.593 34.5095 140.196 38.8793 149.981C40.0209 152.537 43.0981 153.487 45.5823 152.196L100.86 123.472C104.514 121.574 104.522 116.348 100.873 114.438L45.6817 85.5531Z" fill="url(#paint0_linear_455_7738)"/>
<path id="Ellipse 24" d="M171.739 95.801C174.233 94.4751 177.354 95.4251 178.426 98.0384C181.13 104.626 182.537 111.698 182.547 118.859C182.558 126.02 181.172 133.096 178.488 139.691C177.423 142.308 174.305 143.267 171.806 141.948L136.714 123.429C133.098 121.52 133.09 116.344 136.701 114.425L171.739 95.801Z" fill="url(#paint1_linear_455_7738)"/>
<path id="Ellipse 21" d="M63.6505 159.478C61.3283 161.066 60.7179 164.252 62.4882 166.439C67.8441 173.054 74.4934 178.534 82.0481 182.531C89.6028 186.528 97.8738 188.943 106.357 189.649C109.16 189.883 111.45 187.586 111.457 184.772L111.575 136.366C111.585 132.264 106.99 129.833 103.604 132.149L63.6505 159.478Z" fill="url(#paint2_linear_455_7738)"/>
<path id="Ellipse 25" d="M194.366 172.96C196.688 174.548 197.294 177.729 195.579 179.959C187.613 190.313 177.504 198.854 165.921 204.982C154.339 211.111 141.591 214.664 128.548 215.424C125.74 215.588 123.451 213.298 123.445 210.484L123.259 133.991C123.249 129.889 127.844 127.457 131.229 129.773L194.366 172.96Z" fill="url(#paint3_linear_455_7738)"/>
<g id="Ellipse 23">
<path d="M31.8305 58.0849C29.5083 56.4965 28.9034 53.3176 30.6048 51.0768C39.6453 39.1703 51.1853 29.3595 64.4355 22.3488C77.6856 15.3382 92.2888 11.3168 107.218 10.5408C110.028 10.3947 112.316 12.6831 112.323 15.4967L112.537 103.62C112.547 107.722 107.952 110.153 104.566 107.838L31.8305 58.0849Z" fill="var(--fill-0, #524FFF)"/>
<path d="M31.8305 58.0849C29.5083 56.4965 28.9034 53.3176 30.6048 51.0768C39.6453 39.1703 51.1853 29.3595 64.4355 22.3488C77.6856 15.3382 92.2888 11.3168 107.218 10.5408C110.028 10.3947 112.316 12.6831 112.323 15.4967L112.537 103.62C112.547 107.722 107.952 110.153 104.566 107.838L31.8305 58.0849Z" fill="url(#paint4_linear_455_7738)"/>
</g>
<path id="Ellipse 26" d="M194.366 64.5812C196.688 62.9927 197.294 59.8126 195.579 57.5826C187.613 47.2278 177.504 38.6871 165.921 32.5589C154.339 26.4306 141.591 22.8775 128.548 22.117C125.74 21.9532 123.451 24.2433 123.445 27.0569L123.259 103.551C123.249 107.653 127.844 110.084 131.229 107.768L194.366 64.5812Z" fill="url(#paint5_linear_455_7738)"/>
</g>
<defs>
<linearGradient id="paint0_linear_455_7738" x1="32.2642" y1="118.868" x2="109.528" y2="118.868" gradientUnits="userSpaceOnUse">
<stop stop-color="#524FFF"/>
<stop offset="1" stop-color="#7572FF"/>
</linearGradient>
<linearGradient id="paint1_linear_455_7738" x1="182.547" y1="118.868" x2="128.208" y2="118.868" gradientUnits="userSpaceOnUse">
<stop stop-color="#524FFF"/>
<stop offset="1" stop-color="#7572FF"/>
</linearGradient>
<linearGradient id="paint2_linear_455_7738" x1="82.0576" y1="182.536" x2="111.525" y2="126.642" gradientUnits="userSpaceOnUse">
<stop stop-color="#524FFF"/>
<stop offset="1" stop-color="#7572FF"/>
</linearGradient>
<linearGradient id="paint3_linear_455_7738" x1="165.908" y1="204.99" x2="123.341" y2="124.25" gradientUnits="userSpaceOnUse">
<stop stop-color="#524FFF"/>
<stop offset="1" stop-color="#7572FF"/>
</linearGradient>
<linearGradient id="paint4_linear_455_7738" x1="64.4509" y1="22.3406" x2="112.441" y2="113.368" gradientUnits="userSpaceOnUse">
<stop stop-color="#524FFF"/>
<stop offset="1" stop-color="#7572FF"/>
</linearGradient>
<linearGradient id="paint5_linear_455_7738" x1="165.908" y1="32.5515" x2="123.341" y2="113.292" gradientUnits="userSpaceOnUse">
<stop stop-color="#524FFF"/>
<stop offset="1" stop-color="#7572FF"/>
</linearGradient>
</defs>
</svg>
